<svg width="26" height="29" viewBox="0 0 26 29" fill="none" xmlns="http://www.w3.org/2000/svg">
<g id="download" clip-path="url(#clip0_4_76)">
<path id="Vector" d="M23.7933 19.699H17.391L15.2209 22.188C14.643 22.8508 13.8709 23.2194 13.0508 23.2194C12.2307 23.2194 11.4605 22.8533 10.8807 22.188L8.71066 19.699H2.30832C1.46091 19.699 0.773682 20.4872 0.773682 21.4592V26.7398C0.773682 27.7118 1.46091 28.5 2.30832 28.5H23.7933C24.6407 28.5 25.328 27.7118 25.328 26.7398V21.4592C25.328 20.4856 24.6422 19.699 23.7933 19.699ZM21.4913 25.4196C20.8583 25.4196 20.3404 24.8256 20.3404 24.0995C20.3404 23.3734 20.8583 22.7793 21.4913 22.7793C22.1244 22.7793 22.6423 23.3734 22.6423 24.0995C22.6423 24.8256 22.1244 25.4196 21.4913 25.4196ZM11.967 20.9421C12.2643 21.2887 12.6576 21.4592 13.0508 21.4592C13.4441 21.4592 13.8364 21.2873 14.1356 20.9435L20.2742 13.9027C20.8732 13.2151 20.8732 12.1012 20.2742 11.4136C19.6747 10.7261 18.7031 10.7261 18.1041 11.4136L14.5855 15.4525V2.09694C14.5855 1.12497 13.8982 0.336731 13.0508 0.336731C12.202 0.336731 11.5162 1.12497 11.5162 2.09694V15.4525L7.99609 11.415C7.3971 10.7274 6.42548 10.7274 5.82601 11.415C5.22702 12.1026 5.22702 13.2165 5.82601 13.9041L11.967 20.9421Z" fill="white"/>
</g>
<defs>
<clipPath id="clip0_4_76">
<rect width="24.5543" height="28.1633" fill="white" transform="translate(0.773682 0.336731)"/>
</clipPath>
</defs>
</svg>
