<svg width="25" height="29" viewBox="0 0 25 29" fill="none" xmlns="http://www.w3.org/2000/svg">
<g id="film" clip-path="url(#clip0_4_75)">
<path id="Vector" d="M22.223 2.09692H2.27266C1.04447 2.09692 0.013855 3.27901 0.013855 4.73723V24.0995C0.013855 25.5577 1.04446 26.7398 2.27266 26.7398H22.223C23.4944 26.7398 24.525 25.5577 24.525 24.0995V4.73723C24.525 3.27901 23.537 2.09692 22.223 2.09692ZM5.34194 22.7793C5.34194 23.0223 5.17016 23.2194 4.95828 23.2194H2.65632C2.44444 23.2194 2.27266 23.0223 2.27266 22.7793V20.139C2.27266 19.896 2.44444 19.699 2.65632 19.699H4.91512C5.127 19.699 5.29878 19.896 5.29878 20.139L5.34194 22.7793ZM5.34194 15.7385C5.34194 15.9815 5.17016 16.1786 4.95828 16.1786H2.65632C2.44444 16.1786 2.27266 15.9815 2.27266 15.7385V13.0982C2.27266 12.8552 2.44444 12.6581 2.65632 12.6581H4.91512C5.127 12.6581 5.29878 12.8552 5.29878 13.0982V15.7385H5.34194ZM5.34194 8.69769C5.34194 8.94071 5.17016 9.13774 4.95828 9.13774H2.65632C2.44444 9.13774 2.27266 8.94071 2.27266 8.69769V6.05738C2.27266 5.81436 2.44444 5.61733 2.65632 5.61733H4.91512C5.127 5.61733 5.29878 5.81436 5.29878 6.05738L5.34194 8.69769ZM16.8518 22.3393C16.8518 22.8253 16.5082 23.2194 16.0844 23.2194H8.41123C7.98747 23.2194 7.64391 22.8253 7.64391 22.3393V17.0587C7.64391 16.5725 7.98747 16.1786 8.41123 16.1786H16.0844C16.5082 16.1786 16.8518 16.5725 16.8518 17.0587V22.3393ZM16.8518 11.778C16.8518 12.2641 16.5082 12.6581 16.0844 12.6581H8.41123C7.98747 12.6581 7.64391 12.2641 7.64391 11.778V6.49743C7.64391 6.01129 7.98747 5.61733 8.41123 5.61733H16.0844C16.5082 5.61733 16.8518 6.01129 16.8518 6.49743V11.778ZM22.223 22.7793C22.223 23.0223 22.0512 23.2194 21.8393 23.2194H19.5805C19.3687 23.2194 19.24 23.0223 19.24 22.7793V20.139C19.24 19.896 19.4118 19.699 19.6237 19.699H21.8825C22.0944 19.699 22.2662 19.896 22.2662 20.139V22.7793H22.223ZM22.223 15.7385C22.223 15.9815 22.0512 16.1786 21.8393 16.1786H19.5805C19.3687 16.1786 19.1969 15.9815 19.1969 15.7385V13.0982C19.1969 12.8552 19.3687 12.6581 19.5805 12.6581H21.8393C22.0512 12.6581 22.223 12.8552 22.223 13.0982V15.7385ZM22.223 8.69769C22.223 8.94071 22.0512 9.13774 21.8393 9.13774H19.5805C19.3687 9.13774 19.1969 8.94071 19.1969 8.69769V6.05738C19.1969 5.81436 19.3687 5.61733 19.5374 5.61733H21.7962C22.0081 5.61733 22.1798 5.81436 22.1798 6.05738V8.69769H22.223Z" fill="white"/>
</g>
<defs>
<clipPath id="clip0_4_75">
<rect width="24.5543" height="28.1633" fill="white" transform="translate(0.013855 0.336731)"/>
</clipPath>
</defs>
</svg>
