<svg width="29" height="29" viewBox="0 0 29 29" fill="none" xmlns="http://www.w3.org/2000/svg">
<g id="house" clip-path="url(#clip0_4_77)">
<path id="Vector" d="M28.0228 14.3909C28.0228 15.381 27.3034 16.1566 26.4881 16.1566H24.9535L24.9871 24.9631C24.9871 25.1171 24.9775 25.2601 24.9631 25.4086V26.2997C24.9631 27.5154 24.1046 28.5 23.0448 28.5H22.2775C22.2247 28.5 22.172 28.4505 22.1192 28.4945C22.0521 28.4505 21.9849 28.5 21.9178 28.5H19.2082C18.1483 28.5 17.2899 27.5154 17.2899 26.2997V21.4592C17.2899 20.4856 16.6041 19.699 15.7552 19.699H12.6859C11.8371 19.699 11.1513 20.4856 11.1513 21.4592V26.2997C11.1513 27.5154 10.2929 28.5 9.233 28.5H6.55218C6.48024 28.5 6.4083 28.4945 6.33637 28.489C6.27882 28.4945 6.22127 28.5 6.16372 28.5H5.3964C4.33702 28.5 3.4781 27.5154 3.4781 26.2997V20.139C3.4781 20.0895 3.47954 20.0345 3.48241 19.985V16.1566H1.94585C1.08118 16.1566 0.408813 15.381 0.408813 14.3909C0.408813 13.8958 0.552878 13.4558 0.888869 13.0707L13.1847 0.777662C13.5204 0.391847 13.9041 0.336731 14.2398 0.336731C14.5755 0.336731 14.9591 0.446964 15.2517 0.722546L27.4952 13.0707C27.8789 13.4558 28.0755 13.8958 28.0228 14.3909Z" fill="white"/>
</g>
<defs>
<clipPath id="clip0_4_77">
<rect width="27.6236" height="28.1633" fill="white" transform="translate(0.408813 0.336731)"/>
</clipPath>
</defs>
</svg>
